{
  "accessors": [
    {
      "bufferView": 1,
      "componentType": 5126,
      "count": 69,
      "max": [
        12.0,
        10.000003814697266,
        12.0
      ],
      "min": [
        0.0,
        0.0,
        0.0
      ],
      "type": "VEC3"
    },
    {
      "bufferView": 1,
      "byteOffset": 828,
      "componentType": 5126,
      "count": 69,
      "max": [
        1.0,
        -0.0,
        1.0
      ],
      "min": [
        -1.0,
        -1.0,
        -1.0
      ],
      "type": "VEC3"
    },
    {
      "bufferView": 0,
      "componentType": 5125,
      "count": 165,
      "type": "SCALAR"
    },
    {
      "bufferView": 1,
      "byteOffset": 1656,
      "componentType": 5126,
      "count": 56,
      "max": [
        12.0,
        10.000003814697266,
        12.0
      ],
      "min": [
        0.0,
        0.0,
        0.0
      ],
      "type": "VEC3"
    },
    {
      "bufferView": 1,
      "byteOffset": 2328,
      "componentType": 5126,
      "count": 56,
      "max": [
        0.0,
        1.0,
        1.0
      ],
      "min": [
        0.0,
        -1.0,
        0.0
      ],
      "type": "VEC3"
    },
    {
      "bufferView": 0,
      "byteOffset": 660,
      "componentType": 5125,
      "count": 150,
      "type": "SCALAR"
    },
    {
      "bufferView": 1,
      "byteOffset": 3000,
      "componentType": 5126,
      "count": 21,
      "max": [
        2.0265579223632813e-06,
        10.000003814697266,
        12.0
      ],
      "min": [
        0.0,
        4.0531158447265625e-06,
        0.0
      ],
      "type": "VEC3"
    },
    {
      "bufferView": 1,
      "byteOffset": 3252,
      "componentType": 5126,
      "count": 21,
      "max": [
        1.0,
        -0.0,
        0.0
      ],
      "min": [
        1.0,
        -0.0,
        0.0
      ],
      "type": "VEC3"
    },
    {
      "bufferView": 0,
      "byteOffset": 1260,
      "componentType": 5125,
      "count": 57,
      "type": "SCALAR"
    }
  ],
  "asset": {
    "extras": {
      "author": "Sam Javanrouh (https://sketchfab.com/samtimes)",
      "license": "CC-BY-4.0 (http://creativecommons.org/licenses/by/4.0/)",
      "source": "https://sketchfab.com/3d-models/impossible-triangle-8012679e87d64f3b894bc734c41352ac",
      "title": "Impossible Triangle"
    },
    "generator": "Sketchfab-12.67.0",
    "version": "2.0"
  },
  "bufferViews": [
    {
      "buffer": 0,
      "byteLength": 1488,
      "name": "floatBufferViews",
      "target": 34963
    },
    {
      "buffer": 0,
      "byteLength": 3504,
      "byteOffset": 1488,
      "byteStride": 12,
      "name": "floatBufferViews",
      "target": 34962
    }
  ],
  "buffers": [
    {
      "byteLength": 4992,
      "uri": "scene.bin"
    }
  ],
  "extensionsUsed": [
    "KHR_materials_unlit"
  ],
  "materials": [
    {
      "doubleSided": true,
      "extensions": {
        "KHR_materials_unlit": {}
      },
      "name": "Material.001",
      "pbrMetallicRoughness": {
        "baseColorFactor": [
          0.8614710365853658,
          0.8614710365853658,
          0.8614710365853658,
          1.0
        ],
        "metallicFactor": 0.0
      }
    },
    {
      "doubleSided": true,
      "extensions": {
        "KHR_materials_unlit": {}
      },
      "name": "Material.002",
      "pbrMetallicRoughness": {
        "baseColorFactor": [
          0.19073932926829268,
          0.19073932926829268,
          0.19073932926829268,
          1.0
        ],
        "metallicFactor": 0.0
      }
    },
    {
      "doubleSided": true,
      "extensions": {
        "KHR_materials_unlit": {}
      },
      "name": "Material.003",
      "pbrMetallicRoughness": {
        "baseColorFactor": [
          0.3431783536585366,
          0.3431783536585366,
          0.3431783536585366,
          1.0
        ],
        "metallicFactor": 0.0
      }
    }
  ],
  "meshes": [
    {
      "name": "Object_0",
      "primitives": [
        {
          "attributes": {
            "NORMAL": 1,
            "POSITION": 0
          },
          "indices": 2,
          "material": 0,
          "mode": 4
        }
      ]
    },
    {
      "name": "Object_1",
      "primitives": [
        {
          "attributes": {
            "NORMAL": 4,
            "POSITION": 3
          },
          "indices": 5,
          "material": 1,
          "mode": 4
        }
      ]
    },
    {
      "name": "Object_2",
      "primitives": [
        {
          "attributes": {
            "NORMAL": 7,
            "POSITION": 6
          },
          "indices": 8,
          "material": 2,
          "mode": 4
        }
      ]
    }
  ],
  "nodes": [
    {
      "children": [
        1
      ],
      "matrix": [
        0.12866361622729983,
        0.001437438423447901,
        3.1917544683854903e-19,
        0.0,
        0.0,
        2.857084482736118e-17,
        -0.12867164611816406,
        0.0,
        -0.001437438423447901,
        0.12866361622729983,
        2.856906183341664e-17,
        0.0,
        0.056168850511312485,
        -0.055544834583997726,
        -1.2333430850829991e-17,
        1.0
      ],
      "name": "Sketchfab_model"
    },
    {
      "children": [
        2
      ],
      "matrix": [
        1.0,
        0.0,
        0.0,
        0.0,
        0.0,
        1.0,
        0.0,
        0.0,
        0.0,
        0.0,
        1.0,
        0.0,
        -1.0,
        -1.0000040531158447,
        -1.0,
        1.0
      ],
      "name": "8f20bb7ed1d44e3c90a74e90022cec8e.obj.cleaner.gles"
    },
    {
      "children": [
        3,
        4,
        5
      ],
      "name": "Object_2"
    },
    {
      "mesh": 0,
      "name": "Object_3"
    },
    {
      "mesh": 1,
      "name": "Object_4"
    },
    {
      "mesh": 2,
      "name": "Object_5"
    }
  ],
  "scene": 0,
  "scenes": [
    {
      "name": "Sketchfab_Scene",
      "nodes": [
        0
      ]
    }
  ]
}
